<svg width="22" height="20" viewBox="0 0 22 20" fill="none" xmlns="http://www.w3.org/2000/svg">
<path opacity="0.5" d="M19.1034 3.2258C18.6352 2.75739 18.0793 2.38581 17.4674 2.13229C16.8556 1.87878 16.1998 1.74829 15.5375 1.74829C14.8752 1.74829 14.2195 1.87878 13.6076 2.13229C12.9958 2.38581 12.4399 2.75739 11.9717 3.2258L11 4.19746L10.0284 3.2258C9.08264 2.28008 7.79997 1.74878 6.46253 1.74878C5.12508 1.74878 3.84241 2.28008 2.89669 3.2258C1.95098 4.17152 1.41968 5.45418 1.41968 6.79163C1.41968 8.12908 1.95098 9.41175 2.89669 10.3575L3.86836 11.3291L11 18.4608L18.1317 11.3291L19.1034 10.3575C19.5718 9.88927 19.9434 9.33338 20.1969 8.72154C20.4504 8.1097 20.5809 7.45391 20.5809 6.79163C20.5809 6.12935 20.4504 5.47356 20.1969 4.86172C19.9434 4.24988 19.5718 3.69399 19.1034 3.2258V3.2258Z" stroke="#F8F8F8" stroke-width="2" stroke-linecap="round" stroke-linejoin="round"/>
</svg>
