<svg xmlns="http://www.w3.org/2000/svg" aria-hidden="true" style="position:absolute;width:0;height:0;overflow:hidden">
  <defs>
    <symbol id="search" viewBox="0 0 32 32"><path d="M28.948 27.054 24 22.147a11.926 11.926 0 0 0 2.639-7.508c0-6.627-5.373-12-12-12s-12 5.373-12 12 5.373 12 12 12c2.852 0 5.472-.995 7.531-2.657l-.023.018 4.907 4.907a1.333 1.333 0 0 0 1.894 0 1.33 1.33 0 0 0-.001-1.853zM14.667 24a9.333 9.333 0 1 1 0-18.666 9.333 9.333 0 1 1 0 18.666z"/></symbol>
    <symbol id="menu" viewBox="0 0 31 32"><path stroke-linecap="round" stroke-linejoin="round" stroke-width="1.939" d="M27.151 13.414H3.878m23.273-5.172H3.878m23.273 10.344H3.878m23.273 5.172H3.878"/></symbol>
    <symbol id="heart" viewBox="0 0 32 32"><path stroke-linecap="round" stroke-linejoin="round" stroke-width="2.909" d="M27.788 6.147c-1.327-1.328-3.161-2.149-5.187-2.149s-3.86.821-5.187 2.149h0L16 7.559l-1.412-1.412a7.335 7.335 0 1 0-10.374 10.37l.001.001 11.786 11.788 11.788-11.788c1.327-1.327 2.148-3.161 2.148-5.186s-.821-3.859-2.148-5.186v0z" opacity=".5"/></symbol>
    <symbol id="cart" viewBox="0 0 31 32"><path stroke-linecap="round" stroke-linejoin="round" stroke-width="1.92" d="M6.4 18.56h16.814c1.297 0 1.946 0 2.46-.242.46-.219.834-.556 1.092-.972l.006-.011c.297-.486.369-1.13.512-2.419l.749-6.739c.045-.393.067-.589.003-.742a.644.644 0 0 0-.278-.313l-.003-.002c-.145-.079-.342-.079-.739-.079H5.76M2.56 3.2h1.597c.339 0 .508 0 .64.064a.644.644 0 0 1 .276.258l.002.003c.073.128.083.297.105.635l1.16 18.56c.022.338.032.507.105.635a.637.637 0 0 0 .273.259l.004.002c.133.064.302.064.64.064h16.959M9.6 28.16h.013m11.507 0h.013m-10.893 0a.64.64 0 0 1-1.28 0 .64.64 0 0 1 1.28 0zm11.52 0a.64.64 0 0 1-1.28 0 .64.64 0 0 1 1.28 0z"/></symbol>
    <symbol id="star" viewBox="0 0 32 32"><path fill="#f8f8f8" d="M13.826 3.262c.686-2.105 3.664-2.105 4.347 0l1.931 5.943a2.292 2.292 0 0 0 2.174 1.582h6.251c2.215 0 3.134 2.834 1.344 4.135l-5.058 3.673a2.287 2.287 0 0 0-.825 2.572l-.005-.016 1.931 5.945c.686 2.105-1.726 3.858-3.518 2.555l-5.056-3.673c-.372-.273-.839-.437-1.344-.437s-.972.164-1.35.441l.006-.004-5.056 3.673c-1.792 1.303-4.201-.45-3.518-2.555l1.931-5.943a2.282 2.282 0 0 0-.823-2.553l-.006-.004-5.058-3.673c-1.79-1.303-.869-4.137 1.344-4.137h6.251a2.287 2.287 0 0 0 2.167-1.561l.005-.016 1.934-5.943z" opacity=".1" style="fill:var(--color1, #f8f8f8)"/></symbol>
    <symbol id="x" viewBox="0 0 32 32"><path stroke-linecap="round" stroke-linejoin="round" stroke-width="2.88" d="M24 8 8 24M8 8l16 16"/></symbol>
    <symbol id="no-recipes" viewBox="0 0 38 32"><path fill="#9bb537" d="M7.172 12.69h23.172v17.655H7.172V12.69z" style="fill:var(--color2, #9bb537)"/><path fill="#9bb537" d="M16.552 11.586a8.276 8.276 0 1 1-16.553 0 8.276 8.276 0 0 1 16.553 0z" style="fill:var(--color2, #9bb537)"/><path fill="#9bb537" d="M27.034 8.276a8.276 8.276 0 1 1-16.553 0 8.276 8.276 0 0 1 16.553 0z" style="fill:var(--color2, #9bb537)"/><path fill="#9bb537" d="M37.517 11.586a8.276 8.276 0 1 1-16.553 0 8.276 8.276 0 0 1 16.553 0z" style="fill:var(--color2, #9bb537)"/><path fill="#f8f8f8" d="M7.172 29.241h23.172v2.081c0 .374-.324.678-.724.678H7.896c-.4 0-.724-.303-.724-.678v-2.081zm7.173-18.778c0-.599.371-1.084.828-1.084s.828.486.828 1.084v5.005c0 .599-.371 1.084-.828 1.084s-.828-.486-.828-1.084v-5.005zm2.758 0c0-.599.618-1.084 1.379-1.084s1.379.486 1.379 1.084v5.005c0 .599-.618 1.084-1.379 1.084s-1.379-.486-1.379-1.084v-5.005zm3.863 0c0-.599.494-1.084 1.103-1.084s1.103.486 1.103 1.084v5.005c0 .599-.494 1.084-1.103 1.084s-1.103-.486-1.103-1.084v-5.005z" style="fill:var(--color1, #f8f8f8)"/><path fill="#050505" d="M28.184 3.131c.263-.029.567-.045.875-.045h.003A8.333 8.333 0 0 1 37 8.832a8.333 8.333 0 0 1-8.816-5.7z" style="fill:var(--color3, #050505)"/></symbol>
    <symbol id="icon-close-big" viewBox="0 0 18 18"><path stroke="#000" stroke-linecap="round" stroke-width="2" d="M17 1 1 17m16 0L1 1l16 16Z"/></symbol>
    <symbol id="icon-star-colored" fill="none" viewBox="0 0 14 13"><path fill="#EEA10C" d="M6.049.927c.3-.921 1.603-.921 1.902 0l.845 2.6a1 1 0 0 0 .951.692h2.735c.969 0 1.371 1.24.588 1.809l-2.213 1.607a1 1 0 0 0-.363 1.118l.845 2.601c.3.921-.755 1.688-1.539 1.118l-2.212-1.607a1 1 0 0 0-1.176 0L4.2 12.472c-.784.57-1.838-.197-1.539-1.118l.845-2.6a1 1 0 0 0-.363-1.119L.93 6.028c-.783-.57-.38-1.81.588-1.81h2.735a1 1 0 0 0 .95-.69l.846-2.6Z"/></symbol>
    <symbol id="icon-star-no-colored" fill="none" viewBox="0 0 14 13"><path fill="#050505" fill-opacity=".1" d="M6.049.927c.3-.921 1.603-.921 1.902 0l.845 2.6a1 1 0 0 0 .951.692h2.735c.969 0 1.371 1.24.588 1.809l-2.213 1.607a1 1 0 0 0-.363 1.118l.845 2.601c.3.921-.755 1.688-1.539 1.118l-2.212-1.607a1 1 0 0 0-1.176 0L4.2 12.472c-.784.57-1.838-.197-1.539-1.118l.845-2.6a1 1 0 0 0-.363-1.119L.93 6.028c-.783-.57-.38-1.81.588-1.81h2.735a1 1 0 0 0 .95-.69l.846-2.6Z"/></symbol>
    <symbol id="no-recipes" viewBox="0 0 38 32"><path fill="#9bb537" d="M7.172 12.69h23.172v17.655H7.172V12.69z" style="fill:var(--color2, #9bb537)"/><path fill="#9bb537" d="M16.552 11.586a8.276 8.276 0 1 1-16.553 0 8.276 8.276 0 0 1 16.553 0z" style="fill:var(--color2, #9bb537)"/><path fill="#9bb537" d="M27.034 8.276a8.276 8.276 0 1 1-16.553 0 8.276 8.276 0 0 1 16.553 0z" style="fill:var(--color2, #9bb537)"/><path fill="#9bb537" d="M37.517 11.586a8.276 8.276 0 1 1-16.553 0 8.276 8.276 0 0 1 16.553 0z" style="fill:var(--color2, #9bb537)"/><path fill="#f8f8f8" d="M7.172 29.241h23.172v2.081c0 .374-.324.678-.724.678H7.896c-.4 0-.724-.303-.724-.678v-2.081zm7.173-18.778c0-.599.371-1.084.828-1.084s.828.486.828 1.084v5.005c0 .599-.371 1.084-.828 1.084s-.828-.486-.828-1.084v-5.005zm2.758 0c0-.599.618-1.084 1.379-1.084s1.379.486 1.379 1.084v5.005c0 .599-.618 1.084-1.379 1.084s-1.379-.486-1.379-1.084v-5.005zm3.863 0c0-.599.494-1.084 1.103-1.084s1.103.486 1.103 1.084v5.005c0 .599-.494 1.084-1.103 1.084s-1.103-.486-1.103-1.084v-5.005z" style="fill:var(--color1, #f8f8f8)"/><path fill="#050505" d="M28.184 3.131c.263-.029.567-.045.875-.045h.003A8.333 8.333 0 0 1 37 8.832a8.333 8.333 0 0 1-8.816-5.7z" style="fill:var(--color3, #050505)"/></symbol>
  </defs>
</svg>
