<svg xmlns="http://www.w3.org/2000/svg" aria-hidden="true" style="position:absolute;width:0;height:0;overflow:hidden">
  <defs>
    <svg id="search" xmlns="http://www.w3.org/2000/svg" width="18" height="18" fill="none"><path fill="#050505" fill-opacity=".5" d="m16.283 15.218-2.783-2.76a6.75 6.75 0 1 0-1.042 1.042l2.76 2.76a.75.75 0 0 0 1.065 0 .75.75 0 0 0 0-1.042ZM8.25 13.5a5.25 5.25 0 1 1 0-10.5 5.25 5.25 0 0 1 0 10.5Z"/></svg>
    <symbol id="heart" viewBox="0 0 32 32"><path stroke="#f8f8f8" stroke-linecap="round" stroke-linejoin="round" stroke-width="2.909" d="M27.788 6.147c-1.327-1.328-3.161-2.149-5.187-2.149s-3.86.821-5.187 2.149h0L16 7.559l-1.412-1.412a7.335 7.335 0 1 0-10.374 10.37l.001.001 11.786 11.788 11.788-11.788c1.327-1.327 2.148-3.161 2.148-5.186s-.821-3.859-2.148-5.186v0z" opacity=".5"/></symbol>
    <svg id="cart" xmlns="http://www.w3.org/2000/svg" width="24" height="25" fill="none"><path stroke="#050505" stroke-linecap="round" stroke-linejoin="round" stroke-width="1.5" d="M5 14.5h13.136c1.013 0 1.52 0 1.922-.189a2 2 0 0 0 .858-.768c.232-.38.288-.883.4-1.89l.585-5.265c.035-.307.052-.46.002-.58a.5.5 0 0 0-.22-.246c-.113-.062-.267-.062-.577-.062H4.5M2 2.5h1.248c.265 0 .397 0 .5.05a.5.5 0 0 1 .217.204c.057.1.065.232.082.496l.906 14.5c.017.264.025.396.082.496a.5.5 0 0 0 .216.204c.104.05.236.05.5.05H19M7.5 22h.01m8.99 0h.01M8 22a.5.5 0 1 1-1 0 .5.5 0 0 1 1 0Zm9 0a.5.5 0 1 1-1 0 .5.5 0 0 1 1 0Z"/></svg>
    <svg id="x-white" xmlns="http://www.w3.org/2000/svg" width="32" height="32" fill="none"><path stroke="#F8F8F8" stroke-linecap="round" stroke-linejoin="round" stroke-width="2" d="M24 8 8 24M8 8l16 16"/></svg>
    <svg id="x-black" xmlns="http://www.w3.org/2000/svg" width="20" height="20" fill="none"><path stroke="#050505" stroke-linecap="round" stroke-linejoin="round" stroke-width="1.8" d="M15 5 5 15M5 5l10 10"/></svg>
    <symbol id="icon-star-colored" fill="none" viewBox="0 0 14 13"><path fill="#EEA10C" d="M6.049.927c.3-.921 1.603-.921 1.902 0l.845 2.6a1 1 0 0 0 .951.692h2.735c.969 0 1.371 1.24.588 1.809l-2.213 1.607a1 1 0 0 0-.363 1.118l.845 2.601c.3.921-.755 1.688-1.539 1.118l-2.212-1.607a1 1 0 0 0-1.176 0L4.2 12.472c-.784.57-1.838-.197-1.539-1.118l.845-2.6a1 1 0 0 0-.363-1.119L.93 6.028c-.783-.57-.38-1.81.588-1.81h2.735a1 1 0 0 0 .95-.69l.846-2.6Z"/></symbol>
    <symbol id="icon-star-no-colored" fill="none" viewBox="0 0 14 13"><path fill="#050505" fill-opacity=".1" d="M6.049.927c.3-.921 1.603-.921 1.902 0l.845 2.6a1 1 0 0 0 .951.692h2.735c.969 0 1.371 1.24.588 1.809l-2.213 1.607a1 1 0 0 0-.363 1.118l.845 2.601c.3.921-.755 1.688-1.539 1.118l-2.212-1.607a1 1 0 0 0-1.176 0L4.2 12.472c-.784.57-1.838-.197-1.539-1.118l.845-2.6a1 1 0 0 0-.363-1.119L.93 6.028c-.783-.57-.38-1.81.588-1.81h2.735a1 1 0 0 0 .95-.69l.846-2.6Z"/></symbol>
    <symbol id="no-recipes" viewBox="0 0 38 32"><path fill="#9bb537" d="M7.172 12.69h23.172v17.655H7.172V12.69z" style="fill:var(--color2, #9bb537)"/><path fill="#9bb537" d="M16.552 11.586a8.276 8.276 0 1 1-16.553 0 8.276 8.276 0 0 1 16.553 0z" style="fill:var(--color2, #9bb537)"/><path fill="#9bb537" d="M27.034 8.276a8.276 8.276 0 1 1-16.553 0 8.276 8.276 0 0 1 16.553 0z" style="fill:var(--color2, #9bb537)"/><path fill="#9bb537" d="M37.517 11.586a8.276 8.276 0 1 1-16.553 0 8.276 8.276 0 0 1 16.553 0z" style="fill:var(--color2, #9bb537)"/><path fill="#f8f8f8" d="M7.172 29.241h23.172v2.081c0 .374-.324.678-.724.678H7.896c-.4 0-.724-.303-.724-.678v-2.081zm7.173-18.778c0-.599.371-1.084.828-1.084s.828.486.828 1.084v5.005c0 .599-.371 1.084-.828 1.084s-.828-.486-.828-1.084v-5.005zm2.758 0c0-.599.618-1.084 1.379-1.084s1.379.486 1.379 1.084v5.005c0 .599-.618 1.084-1.379 1.084s-1.379-.486-1.379-1.084v-5.005zm3.863 0c0-.599.494-1.084 1.103-1.084s1.103.486 1.103 1.084v5.005c0 .599-.494 1.084-1.103 1.084s-1.103-.486-1.103-1.084v-5.005z" style="fill:var(--color1, #f8f8f8)"/><path fill="#050505" d="M28.184 3.131c.263-.029.567-.045.875-.045h.003A8.333 8.333 0 0 1 37 8.832a8.333 8.333 0 0 1-8.816-5.7z" style="fill:var(--color3, #050505)"/></symbol>
    <svg id="burger" xmlns="http://www.w3.org/2000/svg" width="32" height="33" fill="none"><path stroke="#050505" stroke-linecap="round" stroke-linejoin="round" stroke-width="2" d="M28 13.833H4M28 8.5H4M28 19.167H4M28 24.5H4"/></svg>
  </defs>
</svg>
