<svg aria-hidden="true" style="position: absolute; width: 0; height: 0; overflow: hidden;" version="1.1"
  xmlns="http://www.w3.org/2000/svg" xmlns:xlink="http://www.w3.org/1999/xlink">
  <defs>
    <symbol id="search" viewBox="0 0 32 32">
      <path
        d="M28.948 27.054l-4.948-4.907c1.644-2.036 2.639-4.656 2.639-7.508 0-6.627-5.373-12-12-12s-12 5.373-12 12c0 6.627 5.373 12 12 12 2.852 0 5.472-0.995 7.531-2.657l-0.023 0.018 4.907 4.907c0.242 0.244 0.577 0.394 0.947 0.394s0.705-0.151 0.947-0.394l0-0c0.232-0.24 0.374-0.566 0.374-0.926s-0.143-0.687-0.375-0.927l0 0zM14.667 24c-5.155 0-9.333-4.179-9.333-9.333s4.179-9.333 9.333-9.333v0c5.155 0 9.333 4.179 9.333 9.333s-4.179 9.333-9.333 9.333v0z">
      </path>
    </symbol>
    <symbol id="menu" viewBox="0 0 31 32">
      <path stroke-linejoin="round" stroke-linecap="round" stroke-miterlimit="4" stroke-width="1.9394"
        d="M27.151 13.414h-23.273M27.151 8.242h-23.273M27.151 18.586h-23.273M27.151 23.758h-23.273"></path>
    </symbol>
    <symbol id="heart" viewBox="0 0 32 32">
      <path fill="none" opacity="0.5" stroke="#f8f8f8" style="stroke: var(--color1, #f8f8f8)" stroke-linejoin="round"
        stroke-linecap="round" stroke-miterlimit="4" stroke-width="2.9091"
        d="M27.788 6.147c-1.327-1.328-3.161-2.149-5.187-2.149s-3.86 0.821-5.187 2.149l-0 0-1.414 1.412-1.412-1.412c-1.333-1.36-3.188-2.203-5.24-2.203-4.051 0-7.335 3.284-7.335 7.335 0 2.052 0.843 3.907 2.201 5.238l0.001 0.001 11.786 11.788 11.788-11.788c1.327-1.327 2.148-3.161 2.148-5.186s-0.821-3.859-2.148-5.186v0z">
      </path>
    </symbol>
    <symbol id="cart" viewBox="0 0 31 32">
      <path stroke-linejoin="round" stroke-linecap="round" stroke-miterlimit="4" stroke-width="1.92"
        d="M6.4 18.56h16.814c1.297 0 1.946 0 2.46-0.242 0.46-0.219 0.834-0.556 1.092-0.972l0.006-0.011c0.297-0.486 0.369-1.13 0.512-2.419l0.749-6.739c0.045-0.393 0.067-0.589 0.003-0.742-0.057-0.135-0.155-0.244-0.278-0.313l-0.003-0.002c-0.145-0.079-0.342-0.079-0.739-0.079h-21.256M2.56 3.2h1.597c0.339 0 0.508 0 0.64 0.064 0.118 0.058 0.213 0.148 0.276 0.258l0.002 0.003c0.073 0.128 0.083 0.297 0.105 0.635l1.16 18.56c0.022 0.338 0.032 0.507 0.105 0.635 0.064 0.113 0.159 0.203 0.273 0.259l0.004 0.002c0.133 0.064 0.302 0.064 0.64 0.064h16.959M9.6 28.16h0.013M21.12 28.16h0.013M10.24 28.16c0 0.353-0.287 0.64-0.64 0.64s-0.64-0.287-0.64-0.64v0c0-0.353 0.287-0.64 0.64-0.64s0.64 0.287 0.64 0.64v0zM21.76 28.16c0 0.353-0.287 0.64-0.64 0.64s-0.64-0.287-0.64-0.64v0c0-0.353 0.287-0.64 0.64-0.64s0.64 0.287 0.64 0.64v0z">
      </path>
    </symbol>
    <symbol id="star" viewBox="0 0 32 32">
      <path fill="#f8f8f8" style="fill: var(--color1, #f8f8f8)" opacity="0.1"
        d="M13.826 3.262c0.686-2.105 3.664-2.105 4.347 0l1.931 5.943c0.306 0.925 1.163 1.581 2.174 1.582h6.251c2.215 0 3.134 2.834 1.344 4.135l-5.058 3.673c-0.573 0.42-0.942 1.092-0.942 1.849 0 0.253 0.041 0.496 0.117 0.723l-0.005-0.016 1.931 5.945c0.686 2.105-1.726 3.858-3.518 2.555l-5.056-3.673c-0.372-0.273-0.839-0.437-1.344-0.437s-0.972 0.164-1.35 0.441l0.006-0.004-5.056 3.673c-1.792 1.303-4.201-0.45-3.518-2.555l1.931-5.943c0.071-0.212 0.113-0.455 0.113-0.708 0-0.757-0.368-1.429-0.936-1.845l-0.006-0.004-5.058-3.673c-1.79-1.303-0.869-4.137 1.344-4.137h6.251c1.008-0.001 1.864-0.654 2.167-1.561l0.005-0.016 1.934-5.943z">
      </path>
    </symbol>
    <symbol id="x" viewBox="0 0 32 32">
      <path stroke-linejoin="round" stroke-linecap="round" stroke-miterlimit="4" stroke-width="2.88"
        d="M24 8l-16 16M8 8l16 16"></path>
    </symbol>
    <symbol id="no-recipes" viewBox="0 0 38 32">
      <path fill="#9bb537" style="fill: var(--color2, #9bb537)" d="M7.172 12.69h23.172v17.655h-23.172v-17.655z"></path>
      <path fill="#9bb537" style="fill: var(--color2, #9bb537)"
        d="M16.552 11.586c0 4.57-3.705 8.276-8.276 8.276s-8.276-3.705-8.276-8.276c0-4.57 3.705-8.276 8.276-8.276s8.276 3.705 8.276 8.276z">
      </path>
      <path fill="#9bb537" style="fill: var(--color2, #9bb537)"
        d="M27.034 8.276c0 4.57-3.705 8.276-8.276 8.276s-8.276-3.705-8.276-8.276c0-4.57 3.705-8.276 8.276-8.276s8.276 3.705 8.276 8.276z">
      </path>
      <path fill="#9bb537" style="fill: var(--color2, #9bb537)"
        d="M37.517 11.586c0 4.57-3.705 8.276-8.276 8.276s-8.276-3.705-8.276-8.276c0-4.57 3.705-8.276 8.276-8.276s8.276 3.705 8.276 8.276z">
      </path>
      <path fill="#f8f8f8" style="fill: var(--color1, #f8f8f8)"
        d="M7.172 29.241h23.172v2.081c0 0.374-0.324 0.678-0.724 0.678h-21.724c-0.4 0-0.724-0.303-0.724-0.678v-2.081zM14.345 10.463c0-0.599 0.371-1.084 0.828-1.084s0.828 0.486 0.828 1.084v5.005c0 0.599-0.371 1.084-0.828 1.084s-0.828-0.486-0.828-1.084v-5.005zM17.103 10.463c0-0.599 0.618-1.084 1.379-1.084s1.379 0.486 1.379 1.084v5.005c0 0.599-0.618 1.084-1.379 1.084s-1.379-0.486-1.379-1.084v-5.005zM20.966 10.463c0-0.599 0.494-1.084 1.103-1.084s1.103 0.486 1.103 1.084v5.005c0 0.599-0.494 1.084-1.103 1.084s-1.103-0.486-1.103-1.084v-5.005z">
      </path>
      <path fill="#050505" style="fill: var(--color3, #050505)"
        d="M28.184 3.131c0.263-0.029 0.567-0.045 0.875-0.045 0.001 0 0.002 0 0.003 0h-0c3.714 0 6.861 2.413 7.938 5.746-0.289 0.030-0.582 0.046-0.878 0.046-3.714 0-6.861-2.413-7.938-5.746z">
      </path>
    </symbol>
    <!-- modal icons -->
    <symbol id="icon-close-big" viewBox="0 0 18 18">
      <path d="M17 1L1 17M17 17L1 1L17 17Z" stroke="black" stroke-width="2" stroke-linecap="round" />
    </symbol>
    <symbol id="icon-star-colored" viewBox="0 0 14 13" fill="none">
      <path
        d="M6.04894 0.927052C6.3483 0.0057416 7.6517 0.00574088 7.95106 0.927052L8.79611 3.52786C8.92999 3.93989 9.31394 4.21885 9.74717 4.21885H12.4818C13.4505 4.21885 13.8533 5.45846 13.0696 6.02786L10.8572 7.63525C10.5067 7.8899 10.3601 8.34127 10.494 8.75329L11.339 11.3541C11.6384 12.2754 10.5839 13.0415 9.80017 12.4721L7.58779 10.8647C7.2373 10.6101 6.7627 10.6101 6.41222 10.8647L4.19983 12.4721C3.41612 13.0415 2.36164 12.2754 2.66099 11.3541L3.50604 8.75329C3.63992 8.34127 3.49326 7.8899 3.14277 7.63525L0.930391 6.02787C0.146677 5.45846 0.549452 4.21885 1.51818 4.21885H4.25283C4.68606 4.21885 5.07001 3.93989 5.20389 3.52786L6.04894 0.927052Z"
        fill="#EEA10C" />
    </symbol>
    <symbol id="icon-star-no-colored" viewBox="0 0 14 13" fill="none">
      <path
        d="M6.04894 0.927052C6.3483 0.0057416 7.6517 0.00574088 7.95106 0.927052L8.79611 3.52786C8.92999 3.93989 9.31394 4.21885 9.74717 4.21885H12.4818C13.4505 4.21885 13.8533 5.45846 13.0696 6.02786L10.8572 7.63525C10.5067 7.8899 10.3601 8.34127 10.494 8.75329L11.339 11.3541C11.6384 12.2754 10.5839 13.0415 9.80017 12.4721L7.58779 10.8647C7.2373 10.6101 6.7627 10.6101 6.41222 10.8647L4.19983 12.4721C3.41612 13.0415 2.36164 12.2754 2.66099 11.3541L3.50604 8.75329C3.63992 8.34127 3.49326 7.8899 3.14277 7.63525L0.930391 6.02787C0.146677 5.45846 0.549452 4.21885 1.51818 4.21885H4.25283C4.68606 4.21885 5.07001 3.93989 5.20389 3.52786L6.04894 0.927052Z"
        fill="#050505" fill-opacity="0.1" />
    </symbol>
  </defs>
</svg>

